# xmcd
# 
# Track frame offsets:
#   150
#   16670
#   30500
#   47712
#   64035
#   83092
#   95007
#   111282
#   126292
#   144252
# 
# Disc length: 2155 seconds
# 
# Revision: 5
# Processed by: cddbd v1.5.2PL0 Copyright (c) Steve Scherf et al.
# Submitted via: Synapstar 1.0 
# 
DISCID=7a08690a
DTITLE=Reba McEntire - Reba
DYEAR=1988
DGENRE=Country
TTITLE0=So, So, So Long
TTITLE1=Sunday Kind Of Love
TTITLE2=New Fool At An Old Game
TTITLE3=You're The One I Dream About
TTITLE4=Silly Me
TTITLE5=Respect
TTITLE6=Do Right By Me
TTITLE7=I Know How He Feels
TTITLE8=Wish I Were Only Lonely
TTITLE9=Everytime You Touch Her
EXTD=YEAR: 1988 MediaType: Audio CD Producer: Unknown
EXTT0=
EXTT1=
EXTT2=
EXTT3=
EXTT4=
EXTT5=
EXTT6=
EXTT7=
EXTT8=
EXTT9=
PLAYORDER=
